HIERARCHY
ROOT Hips
{
	OFFSET 0.000000 83.214638 0.000000
	CHANNELS 6 Xposition Yposition Zposition Xrotation Yrotation Zrotation
	JOINT Pelvis
	{
		OFFSET 0.000000 0.000000 0.000000
		CHANNELS 3 Xrotation Yrotation Zrotation
		JOINT LeftUpLeg
		{
			OFFSET 8.479700 -4.795502 -0.379100
			CHANNELS 3 Xrotation Yrotation Zrotation
			JOINT LeftLeg
			{
				OFFSET 0.024144 -32.555107 0.112900
				CHANNELS 3 Xrotation Yrotation Zrotation
				JOINT LeftFoot
				{
					OFFSET -0.024144 -32.638630 -3.012600
					CHANNELS 3 Xrotation Yrotation Zrotation
					JOINT LeftToeBase
					{
						OFFSET 0.970200 -13.225400 11.864200
						CHANNELS 3 Xrotation Yrotation Zrotation
						End Site
						{
							OFFSET 0.000000 12.319262 0.000000
						}
					}
					JOINT LFootTongue
					{
						OFFSET 1.142400 -1.059800 6.665200
						CHANNELS 3 Xrotation Yrotation Zrotation
						End Site
						{
							OFFSET 0.000000 12.319262 0.000000
						}
					}
				}
				JOINT LeftPantLeg
				{
					OFFSET 0.918482 -16.533964 -2.284700
					CHANNELS 3 Xrotation Yrotation Zrotation
					End Site
					{
						OFFSET 0.350399 24.744368 0.000000
					}
				}
			}
		}
		JOINT RightUpLeg
		{
			OFFSET -8.479700 -4.795502 -0.379100
			CHANNELS 3 Xrotation Yrotation Zrotation
			JOINT RightLeg
			{
				OFFSET -0.023144 -32.555092 0.112900
				CHANNELS 3 Xrotation Yrotation Zrotation
				JOINT RightFoot
				{
					OFFSET 0.023144 -32.638641 -3.012700
					CHANNELS 3 Xrotation Yrotation Zrotation
					JOINT RightToeBase
					{
						OFFSET -0.970200 -13.225400 11.864200
						CHANNELS 3 Xrotation Yrotation Zrotation
						End Site
						{
							OFFSET 0.000000 12.319244 0.000000
						}
					}
					JOINT RFootTongue
					{
						OFFSET -1.142200 -1.059800 6.665200
						CHANNELS 3 Xrotation Yrotation Zrotation
						End Site
						{
							OFFSET 0.000000 12.319243 0.000000
						}
					}
				}
				JOINT RightPantLeg
				{
					OFFSET -0.919482 -16.533978 -2.284800
					CHANNELS 3 Xrotation Yrotation Zrotation
					End Site
					{
						OFFSET -0.350400 24.744419 0.000000
					}
				}
			}
		}
	}
	JOINT Spine
	{
		OFFSET 0.000000 7.722000 1.166200
		CHANNELS 3 Xrotation Yrotation Zrotation
		JOINT Spine1
		{
			OFFSET 0.000000 12.024101 0.248800
			CHANNELS 3 Xrotation Yrotation Zrotation
			JOINT Spine2
			{
				OFFSET 0.000000 11.502998 -0.491200
				CHANNELS 3 Xrotation Yrotation Zrotation
				JOINT Neck
				{
					OFFSET 0.000000 18.430702 -3.123100
					CHANNELS 3 Xrotation Yrotation Zrotation
					JOINT Head
					{
						OFFSET 0.000000 9.051102 1.034000
						CHANNELS 3 Xrotation Yrotation Zrotation
						JOINT HairB
						{
							OFFSET 0.208400 24.786102 24.822300
							CHANNELS 3 Xrotation Yrotation Zrotation
							End Site
							{
								OFFSET 0.000000 32.263779 0.000000
							}
						}
						JOINT HairA
						{
							OFFSET -7.081100 24.428299 23.196600
							CHANNELS 3 Xrotation Yrotation Zrotation
							End Site
							{
								OFFSET 0.000000 32.263779 0.000000
							}
						}
						JOINT Hat
						{
							OFFSET 16.728800 15.048294 -15.439601
							CHANNELS 3 Xrotation Yrotation Zrotation
							End Site
							{
								OFFSET 0.000000 32.263779 0.000000
							}
						}
					}
				}
				JOINT LeftShoulder
				{
					OFFSET 6.197800 13.665199 -4.064700
					CHANNELS 3 Xrotation Yrotation Zrotation
					JOINT LeftArm
					{
						OFFSET 7.778100 -0.187103 -1.709300
						CHANNELS 3 Xrotation Yrotation Zrotation
						JOINT LeftForeArm
						{
							OFFSET 22.049376 0.000000 0.000000
							CHANNELS 3 Xrotation Yrotation Zrotation
							JOINT LeftHand
							{
								OFFSET 23.009392 0.000000 0.000000
								CHANNELS 3 Xrotation Yrotation Zrotation
								JOINT LeftHandThumb1
								{
									OFFSET 3.507191 -2.063065 3.133727
									CHANNELS 3 Xrotation Yrotation Zrotation
									JOINT LeftHandThumb2
									{
										OFFSET 3.101337 -1.790558 1.790558
										CHANNELS 3 Xrotation Yrotation Zrotation
										JOINT LeftHandThumb3
										{
											OFFSET 3.058640 -1.765907 1.765906
											CHANNELS 3 Xrotation Yrotation Zrotation
											End Site
											{
												OFFSET -0.415260 3.926476 -0.049563
											}
										}
									}
								}
								JOINT LeftHandIndex1
								{
									OFFSET 11.334419 -0.901459 3.706815
									CHANNELS 3 Xrotation Yrotation Zrotation
									JOINT LeftHandIndex2
									{
										OFFSET 3.283112 0.000000 0.000000
										CHANNELS 3 Xrotation Yrotation Zrotation
										JOINT LeftHandIndex3
										{
											OFFSET 3.323853 0.000000 0.000000
											CHANNELS 3 Xrotation Yrotation Zrotation
											End Site
											{
												OFFSET -1.135597 3.097809 0.402452
											}
										}
									}
								}
								JOINT LeftHandMiddle1
								{
									OFFSET 11.335861 0.000000 0.000000
									CHANNELS 3 Xrotation Yrotation Zrotation
									JOINT LeftHandMiddle2
									{
										OFFSET 3.410492 0.000000 0.000000
										CHANNELS 3 Xrotation Yrotation Zrotation
										JOINT LeftHandMiddle3
										{
											OFFSET 3.312172 0.000000 0.000000
											CHANNELS 3 Xrotation Yrotation Zrotation
											End Site
											{
												OFFSET -1.150200 3.080154 0.400270
											}
										}
									}
								}
								JOINT LeftHandRing1
								{
									OFFSET 11.514786 -0.013176 -3.003090
									CHANNELS 3 Xrotation Yrotation Zrotation
									JOINT LeftHandRing2
									{
										OFFSET 3.053307 0.000000 0.000000
										CHANNELS 3 Xrotation Yrotation Zrotation
										JOINT LeftHandRing3
										{
											OFFSET 3.295807 0.000000 0.000000
											CHANNELS 3 Xrotation Yrotation Zrotation
											End Site
											{
												OFFSET -1.281006 3.013344 0.375733
											}
										}
									}
								}
								JOINT LeftHandPinky1
								{
									OFFSET 10.518692 -0.960396 -5.730441
									CHANNELS 3 Xrotation Yrotation Zrotation
									JOINT LeftHandPinky2
									{
										OFFSET 2.861649 0.000000 0.000000
										CHANNELS 3 Xrotation Yrotation Zrotation
										JOINT LeftHandPinky3
										{
											OFFSET 2.863380 0.000000 0.000000
											CHANNELS 3 Xrotation Yrotation Zrotation
											End Site
											{
												OFFSET -0.843597 2.711159 0.369971
											}
										}
									}
								}
							}
							JOINT LSleeve
							{
								OFFSET 6.676277 -0.344902 -1.011730
								CHANNELS 3 Xrotation Yrotation Zrotation
								End Site
								{
									OFFSET 0.000000 14.885353 0.000000
								}
							}
						}
					}
				}
				JOINT RightShoulder
				{
					OFFSET -6.197800 13.665199 -4.064700
					CHANNELS 3 Xrotation Yrotation Zrotation
					JOINT RightArm
					{
						OFFSET -7.778100 -0.187103 -1.709300
						CHANNELS 3 Xrotation Yrotation Zrotation
						JOINT RightForeArm
						{
							OFFSET -22.049376 0.000000 0.000000
							CHANNELS 3 Xrotation Yrotation Zrotation
							JOINT RightHand
							{
								OFFSET -23.009392 0.000000 0.000000
								CHANNELS 3 Xrotation Yrotation Zrotation
								JOINT RightHandThumb1
								{
									OFFSET -3.507191 -2.063065 3.133727
									CHANNELS 3 Xrotation Yrotation Zrotation
									JOINT RightHandThumb2
									{
										OFFSET -3.101337 -1.790558 1.790558
										CHANNELS 3 Xrotation Yrotation Zrotation
										JOINT RightHandThumb3
										{
											OFFSET -3.058640 -1.765907 1.765906
											CHANNELS 3 Xrotation Yrotation Zrotation
											End Site
											{
												OFFSET 0.415260 3.926476 -0.049563
											}
										}
									}
								}
								JOINT RightHandIndex1
								{
									OFFSET -11.334419 -0.901459 3.706815
									CHANNELS 3 Xrotation Yrotation Zrotation
									JOINT RightHandIndex2
									{
										OFFSET -3.283112 0.000000 0.000000
										CHANNELS 3 Xrotation Yrotation Zrotation
										JOINT RightHandIndex3
										{
											OFFSET -3.323853 0.000000 0.000000
											CHANNELS 3 Xrotation Yrotation Zrotation
											End Site
											{
												OFFSET 1.135597 3.097809 0.402452
											}
										}
									}
								}
								JOINT RightHandMiddle1
								{
									OFFSET -11.335861 0.000000 0.000000
									CHANNELS 3 Xrotation Yrotation Zrotation
									JOINT RightHandMiddle2
									{
										OFFSET -3.410492 0.000000 0.000000
										CHANNELS 3 Xrotation Yrotation Zrotation
										JOINT RightHandMiddle3
										{
											OFFSET -3.312172 0.000000 0.000000
											CHANNELS 3 Xrotation Yrotation Zrotation
											End Site
											{
												OFFSET 1.150200 3.080154 0.400270
											}
										}
									}
								}
								JOINT RightHandRing1
								{
									OFFSET -11.514786 -0.013176 -3.003090
									CHANNELS 3 Xrotation Yrotation Zrotation
									JOINT RightHandRing2
									{
										OFFSET -3.053307 0.000000 0.000000
										CHANNELS 3 Xrotation Yrotation Zrotation
										JOINT RightHandRing3
										{
											OFFSET -3.295807 0.000000 0.000000
											CHANNELS 3 Xrotation Yrotation Zrotation
											End Site
											{
												OFFSET 1.281006 3.013344 0.375733
											}
										}
									}
								}
								JOINT RightHandPinky1
								{
									OFFSET -10.518692 -0.960396 -5.730441
									CHANNELS 3 Xrotation Yrotation Zrotation
									JOINT RightHandPinky2
									{
										OFFSET -2.861649 0.000000 0.000000
										CHANNELS 3 Xrotation Yrotation Zrotation
										JOINT RightHandPinky3
										{
											OFFSET -2.863380 0.000000 0.000000
											CHANNELS 3 Xrotation Yrotation Zrotation
											End Site
											{
												OFFSET 0.843597 2.711159 0.369971
											}
										}
									}
								}
							}
							JOINT RSleeve
							{
								OFFSET -6.676277 -0.344902 -1.011730
								CHANNELS 3 Xrotation Yrotation Zrotation
								End Site
								{
									OFFSET 0.000000 14.885353 0.000000
								}
							}
						}
					}
				}
				JOINT Backpack
				{
					OFFSET 0.000000 -2.471497 36.677502
					CHANNELS 3 Xrotation Yrotation Zrotation
					End Site
					{
						OFFSET 0.000000 20.427315 0.000000
					}
				}
				JOINT Hood
				{
					OFFSET 0.000000 18.754097 -10.431000
					CHANNELS 3 Xrotation Yrotation Zrotation
					JOINT Hood1
					{
						OFFSET 0.000000 -5.011002 -7.685901
						CHANNELS 3 Xrotation Yrotation Zrotation
						End Site
						{
							OFFSET 0.000000 9.175140 0.000000
						}
					}
				}
				JOINT LHoodieString
				{
					OFFSET 5.250500 16.397697 3.089900
					CHANNELS 3 Xrotation Yrotation Zrotation
					JOINT LHoodieString1
					{
						OFFSET 0.257700 -6.364304 3.694600
						CHANNELS 3 Xrotation Yrotation Zrotation
						JOINT LHoodieString2
						{
							OFFSET 0.000000 -9.643799 2.679100
							CHANNELS 3 Xrotation Yrotation Zrotation
							End Site
							{
								OFFSET 0.000000 10.009018 0.000000
							}
						}
					}
				}
				JOINT RHoodieString
				{
					OFFSET -5.250500 16.397697 3.089900
					CHANNELS 3 Xrotation Yrotation Zrotation
					JOINT RHoodieString1
					{
						OFFSET -0.257700 -6.364304 3.694600
						CHANNELS 3 Xrotation Yrotation Zrotation
						JOINT RHoodieString2
						{
							OFFSET 0.000000 -9.643799 2.679100
							CHANNELS 3 Xrotation Yrotation Zrotation
							End Site
							{
								OFFSET 0.000000 10.009018 0.000000
							}
						}
					}
				}
			}
			JOINT LBackpack_Strap
			{
				OFFSET 15.223200 -7.719803 -6.610900
				CHANNELS 3 Xrotation Yrotation Zrotation
				End Site
				{
					OFFSET 0.000000 16.040596 0.000000
				}
			}
			JOINT RBackpack_Strap
			{
				OFFSET -15.223000 -7.719803 -6.610900
				CHANNELS 3 Xrotation Yrotation Zrotation
				End Site
				{
					OFFSET 0.000000 16.040596 0.000000
				}
			}
		}
	}
	JOINT BoyFacialAnim_Joint
	{
		OFFSET 1.000000 -82.208099 -1.550900
		CHANNELS 3 Xrotation Yrotation Zrotation
		End Site
		{
			OFFSET 0.000000 30.012791 0.000000
		}
	}
}
MOTION
Frames: 4
Frame Time: 0.033333
86.858498 77.222176 18.796021 1.766790 -157.807873 0.980230 -0.000000 0.000001 0.000000 -22.258320 11.834449 23.007250 23.732368 2.583890 2.609108 1.830254 0.748636 -19.164015 -0.000000 -0.000000 -0.000000 -0.000000 -0.000000 0.000000 0.000000 -0.000002 0.000002 -13.686868 -13.156360 -21.121797 29.952849 9.647713 -2.080713 -16.319882 -2.951073 16.036376 -0.000000 0.000001 -0.000000 -0.000000 0.000001 -0.000000 0.000002 0.000001 0.000001 3.525795 0.573184 -0.227909 5.837141 1.142663 0.099189 5.828087 1.197219 0.071412 2.917661 5.922268 1.402428 5.419044 34.921084 -17.663060 -0.000000 0.000000 -0.000000 -0.000000 0.000000 -0.000000 -0.000000 0.000000 -0.000000 4.512731 -14.662417 -8.841226 -30.425918 2.944205 -38.659656 -0.000000 -42.197172 -0.000011 -0.638952 -14.616120 26.121336 4.891664 7.994784 1.883998 10.475101 36.544336 -16.206437 0.000001 -0.000001 0.000002 7.775683 6.956346 -86.152707 10.250120 6.003589 -119.372063 -0.000001 0.000002 -0.000005 6.554734 6.873489 -87.274306 9.404154 6.404046 -111.556011 0.000006 0.000003 0.000001 3.127852 6.869478 -89.819651 9.007620 6.545903 -108.040725 0.000001 -0.000002 0.000001 1.160390 7.315413 -94.148414 8.017693 2.700478 -99.510706 -0.000002 -0.000001 0.000003 0.000000 -0.000000 0.000002 3.620002 17.898376 7.809959 -8.910505 37.748956 50.731729 0.000579 97.620861 -0.000585 -19.516110 14.692574 5.130634 2.101967 -10.083012 3.633757 13.438094 -33.955517 8.870032 0.000001 0.000001 -0.000001 9.556185 -7.137718 86.157905 10.350233 -6.061996 119.375519 -0.000003 0.000002 0.000002 6.610161 -6.940050 87.289428 9.494169 -6.467106 111.542617 0.000002 0.000001 -0.000002 1.946413 -7.142795 92.181135 8.379080 -6.800019 101.912324 0.000000 0.000001 0.000000 -2.850696 -7.674963 94.127472 8.100989 -6.852424 99.572670 -0.000001 -0.000003 0.000002 0.000000 -0.000001 -0.000001 0.000001 0.000001 -0.000001 0.000001 0.000001 -0.000001 0.000001 0.000001 -0.000001 0.000001 0.000001 -0.000001 0.000001 0.000001 -0.000000 -0.000000 0.000002 -0.000001 0.000001 0.000001 -0.000001 0.000001 0.000001 -0.000000 -0.000000 0.000002 -0.000001 0.000000 -0.000001 0.000000 0.000000 -0.000001 0.000000 -0.000000 0.000001 0.000000 
86.929008 77.213478 18.793089 1.704539 -157.668073 1.003581 -0.000000 0.000000 -0.000000 -22.296072 11.740142 22.910679 23.590978 2.602511 2.666208 1.969917 0.731584 -19.210061 -0.000000 0.000000 0.000000 -0.000000 0.000000 0.000000 -0.000001 0.000000 -0.000002 -13.774780 -13.104782 -21.131507 30.118020 9.663474 -2.046911 -16.467226 -2.936471 15.947131 0.000000 -0.000000 -0.000000 0.000000 -0.000000 -0.000000 -0.000002 0.000000 0.000001 3.537568 0.546034 -0.234837 5.864444 1.088391 0.084643 5.855877 1.142375 0.058097 2.828283 5.947718 1.305372 5.179640 34.938993 -17.639508 -0.000001 0.000000 0.000000 -0.000001 0.000000 0.000000 -0.000001 0.000000 0.000000 4.511745 -14.657535 -8.845071 -30.419788 3.072633 -38.527151 0.000005 -42.413149 0.000010 -0.665803 -14.504006 26.160062 4.891665 7.994778 1.883999 10.475123 36.544340 -16.206451 -0.000000 -0.000001 0.000003 7.775686 6.956335 -86.152735 10.250120 6.003565 -119.372063 -0.000003 0.000004 -0.000005 6.554752 6.873508 -87.274306 9.404174 6.404058 -111.556018 0.000002 0.000003 -0.000003 3.127863 6.869489 -89.819665 9.007627 6.545902 -108.040718 -0.000004 -0.000001 -0.000002 1.160375 7.315412 -94.148441 8.017693 2.700490 -99.510693 -0.000004 -0.000002 0.000003 0.000000 -0.000001 0.000002 3.613353 17.850653 7.774968 -9.409306 37.455788 50.858347 -0.000126 97.333679 0.000112 -19.720626 14.772690 6.213321 2.101977 -10.083007 3.633759 13.438121 -33.955514 8.870041 -0.000000 0.000001 0.000001 9.556203 -7.137718 86.157884 10.350229 -6.061989 119.375519 0.000003 0.000002 0.000002 6.610173 -6.940063 87.289428 9.494161 -6.467124 111.542617 0.000002 -0.000002 -0.000001 1.946447 -7.142809 92.181128 8.379085 -6.800031 101.912324 -0.000003 -0.000001 0.000000 -2.850686 -7.674960 94.127493 8.100982 -6.852424 99.572677 -0.000000 -0.000001 -0.000002 0.000002 0.000001 0.000000 0.000001 0.000001 -0.000000 0.000001 0.000001 -0.000000 0.000001 0.000001 -0.000000 0.000001 0.000001 -0.000000 0.000001 0.000001 -0.000001 0.000001 -0.000001 -0.000000 0.000001 0.000001 -0.000000 0.000001 0.000001 -0.000001 0.000001 -0.000001 -0.000000 0.000000 -0.000001 0.000000 0.000000 -0.000001 0.000000 -0.000000 0.000000 -0.000000 
87.020676 77.194916 18.772350 1.608654 -157.427323 0.938849 0.000000 -0.000000 -0.000000 -22.508624 11.650112 22.936248 23.553288 2.531082 2.700284 2.105333 0.717387 -19.222645 -0.000000 -0.000002 0.000000 -0.000000 -0.000002 0.000000 0.000001 -0.000000 0.000001 -13.825694 -13.077774 -21.081900 30.284994 9.515479 -1.924767 -16.625449 -2.923187 15.845241 0.000000 -0.000000 -0.000000 0.000000 -0.000000 -0.000000 0.000000 -0.000001 -0.000002 3.547260 0.528029 -0.234241 5.885304 1.052521 0.088092 5.877030 1.106642 0.062316 2.727463 5.962965 1.237729 4.824057 34.958250 -17.616967 -0.000000 -0.000002 -0.000000 -0.000000 -0.000002 -0.000000 -0.000000 -0.000002 -0.000000 4.502094 -14.628110 -8.802891 -30.436187 3.145728 -38.439796 -0.000009 -42.639314 -0.000009 -0.621961 -14.354710 26.179152 4.891678 7.994786 1.883998 10.475109 36.544330 -16.206444 -0.000005 0.000000 0.000002 7.775696 6.956341 -86.152735 10.250126 6.003573 -119.372049 0.000000 0.000001 -0.000002 6.554752 6.873493 -87.274306 9.404170 6.404059 -111.556018 -0.000001 -0.000001 0.000002 3.127862 6.869491 -89.819672 9.007632 6.545911 -108.040718 0.000000 0.000001 -0.000004 1.160392 7.315413 -94.148427 8.017696 2.700480 -99.510713 -0.000000 -0.000000 -0.000000 -0.000001 0.000001 0.000003 3.607115 17.810531 7.765263 -9.871254 36.999405 50.779677 0.000515 96.946216 -0.000482 -20.041235 14.890734 7.530853 2.101946 -10.083010 3.633754 13.438113 -33.955514 8.870035 0.000002 0.000003 -0.000001 9.556182 -7.137739 86.157912 10.350227 -6.061997 119.375505 -0.000004 -0.000000 0.000004 6.610134 -6.940077 87.289442 9.494170 -6.467127 111.542610 0.000000 0.000001 -0.000002 1.946419 -7.142784 92.181135 8.379068 -6.800017 101.912324 -0.000002 0.000000 0.000000 -2.850724 -7.674956 94.127479 8.100971 -6.852439 99.572663 0.000001 -0.000001 0.000000 -0.000002 -0.000001 0.000000 0.000001 -0.000002 0.000000 0.000001 -0.000002 0.000000 0.000001 -0.000002 0.000000 0.000001 -0.000002 0.000000 0.000001 -0.000002 0.000001 -0.000000 -0.000000 0.000000 0.000001 -0.000002 0.000000 0.000001 -0.000002 0.000001 -0.000000 -0.000000 0.000000 0.000000 0.000002 -0.000000 0.000000 0.000002 -0.000000 0.000000 -0.000000 -0.000000 
87.105705 77.164543 18.732592 1.422185 -157.049750 0.756671 0.000000 -0.000001 -0.000000 -22.961643 11.522370 23.071722 23.681669 2.342097 2.703502 2.180077 0.705959 -19.191428 -0.000000 -0.000000 -0.000000 -0.000000 -0.000000 0.000000 -0.000000 0.000001 0.000002 -13.856205 -13.087302 -20.987489 30.409655 9.215252 -1.696776 -16.788222 -2.914669 15.742850 -0.000000 -0.000001 -0.000000 -0.000000 -0.000001 -0.000000 0.000000 0.000002 -0.000001 3.541615 0.519635 -0.219826 5.873755 1.036233 0.121586 5.865547 1.091321 0.096132 2.580860 5.962857 1.222808 4.389287 34.946236 -17.535930 0.000001 0.000000 -0.000000 0.000001 0.000000 -0.000000 0.000001 0.000000 -0.000000 4.479711 -14.561837 -8.695853 -30.473333 3.166377 -38.451677 0.000001 -42.838356 0.000001 -0.592311 -14.212739 26.222812 4.891664 7.994783 1.884003 10.475113 36.544343 -16.206442 0.000002 -0.000001 0.000003 7.775675 6.956339 -86.152707 10.250131 6.003574 -119.372063 0.000001 0.000003 -0.000005 6.554740 6.873496 -87.274306 9.404152 6.404054 -111.556011 0.000002 0.000002 0.000001 3.127848 6.869478 -89.819651 9.007609 6.545909 -108.040711 0.000001 0.000001 -0.000004 1.160380 7.315402 -94.148393 8.017689 2.700467 -99.510699 0.000000 0.000000 0.000002 0.000001 -0.000001 0.000002 3.592096 17.707856 7.711781 -10.342517 36.371413 50.592178 0.000838 96.410729 -0.000829 -20.305343 15.063246 9.167775 2.101961 -10.083010 3.633758 13.438102 -33.955520 8.870037 -0.000001 -0.000001 0.000000 9.556193 -7.137735 86.157925 10.350228 -6.061982 119.375560 0.000002 0.000001 0.000004 6.610166 -6.940063 87.289435 9.494180 -6.467132 111.542631 0.000000 0.000001 -0.000000 1.946419 -7.142789 92.181135 8.379078 -6.800016 101.912344 -0.000000 0.000001 0.000006 -2.850693 -7.674973 94.127479 8.100988 -6.852431 99.572690 0.000001 0.000001 0.000002 -0.000001 -0.000001 -0.000000 -0.000000 -0.000001 -0.000000 -0.000000 -0.000001 -0.000000 -0.000000 -0.000001 -0.000000 -0.000000 -0.000001 -0.000000 -0.000000 -0.000001 -0.000000 -0.000000 -0.000001 0.000000 -0.000000 -0.000001 -0.000000 -0.000000 -0.000001 -0.000000 -0.000000 -0.000001 0.000000 0.000000 0.000001 0.000000 0.000000 0.000001 0.000000 0.000000 -0.000001 -0.000000 
